G04 #@! TF.FileFunction,Legend,Bot*
%FSLAX46Y46*%
G04 Gerber Fmt 4.6, Leading zero omitted, Abs format (unit mm)*
G04 Created by KiCad (PCBNEW 0.201510170916+6271~30~ubuntu14.04.1-product) date Tue 27 Oct 2015 04:13:56 PM CET*
%MOMM*%
G01*
G04 APERTURE LIST*
%ADD10C,0.100000*%
%ADD11C,0.250000*%
%ADD12C,0.300000*%
%ADD13C,0.200000*%
%ADD14C,0.002540*%
%ADD15C,0.254000*%
%ADD16R,2.432000X2.127200*%
%ADD17O,2.432000X2.127200*%
%ADD18R,2.127200X2.432000*%
%ADD19O,2.127200X2.432000*%
%ADD20R,2.432000X2.432000*%
%ADD21O,2.432000X2.432000*%
%ADD22C,1.400000*%
%ADD23C,3.400000*%
G04 APERTURE END LIST*
D10*
D11*
X184593620Y-89098381D02*
X184593620Y-88098381D01*
X184355525Y-88098381D01*
X184212667Y-88146000D01*
X184117429Y-88241238D01*
X184069810Y-88336476D01*
X184022191Y-88526952D01*
X184022191Y-88669810D01*
X184069810Y-88860286D01*
X184117429Y-88955524D01*
X184212667Y-89050762D01*
X184355525Y-89098381D01*
X184593620Y-89098381D01*
X183165048Y-89098381D02*
X183165048Y-88574571D01*
X183212667Y-88479333D01*
X183307905Y-88431714D01*
X183498382Y-88431714D01*
X183593620Y-88479333D01*
X183165048Y-89050762D02*
X183260286Y-89098381D01*
X183498382Y-89098381D01*
X183593620Y-89050762D01*
X183641239Y-88955524D01*
X183641239Y-88860286D01*
X183593620Y-88765048D01*
X183498382Y-88717429D01*
X183260286Y-88717429D01*
X183165048Y-88669810D01*
X182784096Y-88431714D02*
X182546001Y-89098381D01*
X182307905Y-88431714D01*
X181926953Y-89098381D02*
X181926953Y-88431714D01*
X181926953Y-88098381D02*
X181974572Y-88146000D01*
X181926953Y-88193619D01*
X181879334Y-88146000D01*
X181926953Y-88098381D01*
X181926953Y-88193619D01*
X181022191Y-89098381D02*
X181022191Y-88098381D01*
X181022191Y-89050762D02*
X181117429Y-89098381D01*
X181307906Y-89098381D01*
X181403144Y-89050762D01*
X181450763Y-89003143D01*
X181498382Y-88907905D01*
X181498382Y-88622190D01*
X181450763Y-88526952D01*
X181403144Y-88479333D01*
X181307906Y-88431714D01*
X181117429Y-88431714D01*
X181022191Y-88479333D01*
X179784096Y-88574571D02*
X179450762Y-88574571D01*
X179307905Y-89098381D02*
X179784096Y-89098381D01*
X179784096Y-88098381D01*
X179307905Y-88098381D01*
X178926953Y-89050762D02*
X178831715Y-89098381D01*
X178641239Y-89098381D01*
X178546000Y-89050762D01*
X178498381Y-88955524D01*
X178498381Y-88907905D01*
X178546000Y-88812667D01*
X178641239Y-88765048D01*
X178784096Y-88765048D01*
X178879334Y-88717429D01*
X178926953Y-88622190D01*
X178926953Y-88574571D01*
X178879334Y-88479333D01*
X178784096Y-88431714D01*
X178641239Y-88431714D01*
X178546000Y-88479333D01*
X178212667Y-88431714D02*
X177831715Y-88431714D01*
X178069810Y-88098381D02*
X178069810Y-88955524D01*
X178022191Y-89050762D01*
X177926953Y-89098381D01*
X177831715Y-89098381D01*
X177117428Y-89050762D02*
X177212666Y-89098381D01*
X177403143Y-89098381D01*
X177498381Y-89050762D01*
X177546000Y-88955524D01*
X177546000Y-88574571D01*
X177498381Y-88479333D01*
X177403143Y-88431714D01*
X177212666Y-88431714D01*
X177117428Y-88479333D01*
X177069809Y-88574571D01*
X177069809Y-88669810D01*
X177546000Y-88765048D01*
X176736476Y-88431714D02*
X176498381Y-89098381D01*
X176260285Y-88431714D01*
X175498380Y-89050762D02*
X175593618Y-89098381D01*
X175784095Y-89098381D01*
X175879333Y-89050762D01*
X175926952Y-88955524D01*
X175926952Y-88574571D01*
X175879333Y-88479333D01*
X175784095Y-88431714D01*
X175593618Y-88431714D01*
X175498380Y-88479333D01*
X175450761Y-88574571D01*
X175450761Y-88669810D01*
X175926952Y-88765048D01*
X175117428Y-88431714D02*
X174593618Y-88431714D01*
X175117428Y-89098381D01*
X174593618Y-89098381D01*
X173117427Y-88574571D02*
X173450761Y-88574571D01*
X173450761Y-89098381D02*
X173450761Y-88098381D01*
X172974570Y-88098381D01*
X172165046Y-89098381D02*
X172165046Y-88098381D01*
X172165046Y-89050762D02*
X172260284Y-89098381D01*
X172450761Y-89098381D01*
X172545999Y-89050762D01*
X172593618Y-89003143D01*
X172641237Y-88907905D01*
X172641237Y-88622190D01*
X172593618Y-88526952D01*
X172545999Y-88479333D01*
X172450761Y-88431714D01*
X172260284Y-88431714D01*
X172165046Y-88479333D01*
X171307903Y-89050762D02*
X171403141Y-89098381D01*
X171593618Y-89098381D01*
X171688856Y-89050762D01*
X171736475Y-88955524D01*
X171736475Y-88574571D01*
X171688856Y-88479333D01*
X171593618Y-88431714D01*
X171403141Y-88431714D01*
X171307903Y-88479333D01*
X171260284Y-88574571D01*
X171260284Y-88669810D01*
X171736475Y-88765048D01*
X170926951Y-88431714D02*
X170403141Y-88431714D01*
X170926951Y-89098381D01*
X170403141Y-89098381D01*
D12*
X144382856Y-87816571D02*
X144025713Y-88816571D01*
X143668571Y-87816571D01*
X142311428Y-88816571D02*
X143168571Y-88816571D01*
X142739999Y-88816571D02*
X142739999Y-87316571D01*
X142882856Y-87530857D01*
X143025714Y-87673714D01*
X143168571Y-87745143D01*
X141668571Y-88673714D02*
X141597143Y-88745143D01*
X141668571Y-88816571D01*
X141740000Y-88745143D01*
X141668571Y-88673714D01*
X141668571Y-88816571D01*
X140668571Y-87316571D02*
X140525714Y-87316571D01*
X140382857Y-87388000D01*
X140311428Y-87459429D01*
X140239999Y-87602286D01*
X140168571Y-87888000D01*
X140168571Y-88245143D01*
X140239999Y-88530857D01*
X140311428Y-88673714D01*
X140382857Y-88745143D01*
X140525714Y-88816571D01*
X140668571Y-88816571D01*
X140811428Y-88745143D01*
X140882857Y-88673714D01*
X140954285Y-88530857D01*
X141025714Y-88245143D01*
X141025714Y-87888000D01*
X140954285Y-87602286D01*
X140882857Y-87459429D01*
X140811428Y-87388000D01*
X140668571Y-87316571D01*
X167178286Y-87316571D02*
X166821143Y-88816571D01*
X166535429Y-87745143D01*
X166249715Y-88816571D01*
X165892572Y-87316571D01*
X165321143Y-88816571D02*
X165321143Y-87816571D01*
X165321143Y-87316571D02*
X165392572Y-87388000D01*
X165321143Y-87459429D01*
X165249715Y-87388000D01*
X165321143Y-87316571D01*
X165321143Y-87459429D01*
X164821143Y-87816571D02*
X164249714Y-87816571D01*
X164606857Y-88816571D02*
X164606857Y-87530857D01*
X164535429Y-87388000D01*
X164392571Y-87316571D01*
X164249714Y-87316571D01*
X163749714Y-88816571D02*
X163749714Y-87816571D01*
X163749714Y-87316571D02*
X163821143Y-87388000D01*
X163749714Y-87459429D01*
X163678286Y-87388000D01*
X163749714Y-87316571D01*
X163749714Y-87459429D01*
X162321142Y-88816571D02*
X163035428Y-88816571D01*
X163035428Y-87316571D01*
X161821142Y-88816571D02*
X161821142Y-87816571D01*
X161821142Y-87316571D02*
X161892571Y-87388000D01*
X161821142Y-87459429D01*
X161749714Y-87388000D01*
X161821142Y-87316571D01*
X161821142Y-87459429D01*
X160463999Y-87816571D02*
X160463999Y-89030857D01*
X160535428Y-89173714D01*
X160606856Y-89245143D01*
X160749713Y-89316571D01*
X160963999Y-89316571D01*
X161106856Y-89245143D01*
X160463999Y-88745143D02*
X160606856Y-88816571D01*
X160892570Y-88816571D01*
X161035428Y-88745143D01*
X161106856Y-88673714D01*
X161178285Y-88530857D01*
X161178285Y-88102286D01*
X161106856Y-87959429D01*
X161035428Y-87888000D01*
X160892570Y-87816571D01*
X160606856Y-87816571D01*
X160463999Y-87888000D01*
X159749713Y-88816571D02*
X159749713Y-87316571D01*
X159106856Y-88816571D02*
X159106856Y-88030857D01*
X159178285Y-87888000D01*
X159321142Y-87816571D01*
X159535427Y-87816571D01*
X159678285Y-87888000D01*
X159749713Y-87959429D01*
X158606856Y-87816571D02*
X158035427Y-87816571D01*
X158392570Y-87316571D02*
X158392570Y-88602286D01*
X158321142Y-88745143D01*
X158178284Y-88816571D01*
X158035427Y-88816571D01*
X157606856Y-88745143D02*
X157463999Y-88816571D01*
X157178284Y-88816571D01*
X157035427Y-88745143D01*
X156963999Y-88602286D01*
X156963999Y-88530857D01*
X157035427Y-88388000D01*
X157178284Y-88316571D01*
X157392570Y-88316571D01*
X157535427Y-88245143D01*
X157606856Y-88102286D01*
X157606856Y-88030857D01*
X157535427Y-87888000D01*
X157392570Y-87816571D01*
X157178284Y-87816571D01*
X157035427Y-87888000D01*
X155463998Y-88673714D02*
X155535427Y-88745143D01*
X155749713Y-88816571D01*
X155892570Y-88816571D01*
X156106855Y-88745143D01*
X156249713Y-88602286D01*
X156321141Y-88459429D01*
X156392570Y-88173714D01*
X156392570Y-87959429D01*
X156321141Y-87673714D01*
X156249713Y-87530857D01*
X156106855Y-87388000D01*
X155892570Y-87316571D01*
X155749713Y-87316571D01*
X155535427Y-87388000D01*
X155463998Y-87459429D01*
X154606855Y-88816571D02*
X154749713Y-88745143D01*
X154821141Y-88673714D01*
X154892570Y-88530857D01*
X154892570Y-88102286D01*
X154821141Y-87959429D01*
X154749713Y-87888000D01*
X154606855Y-87816571D01*
X154392570Y-87816571D01*
X154249713Y-87888000D01*
X154178284Y-87959429D01*
X154106855Y-88102286D01*
X154106855Y-88530857D01*
X154178284Y-88673714D01*
X154249713Y-88745143D01*
X154392570Y-88816571D01*
X154606855Y-88816571D01*
X153463998Y-87816571D02*
X153463998Y-88816571D01*
X153463998Y-87959429D02*
X153392570Y-87888000D01*
X153249712Y-87816571D01*
X153035427Y-87816571D01*
X152892570Y-87888000D01*
X152821141Y-88030857D01*
X152821141Y-88816571D01*
X152321141Y-87816571D02*
X151749712Y-87816571D01*
X152106855Y-87316571D02*
X152106855Y-88602286D01*
X152035427Y-88745143D01*
X151892569Y-88816571D01*
X151749712Y-88816571D01*
X151249712Y-88816571D02*
X151249712Y-87816571D01*
X151249712Y-88102286D02*
X151178284Y-87959429D01*
X151106855Y-87888000D01*
X150963998Y-87816571D01*
X150821141Y-87816571D01*
X150106855Y-88816571D02*
X150249713Y-88745143D01*
X150321141Y-88673714D01*
X150392570Y-88530857D01*
X150392570Y-88102286D01*
X150321141Y-87959429D01*
X150249713Y-87888000D01*
X150106855Y-87816571D01*
X149892570Y-87816571D01*
X149749713Y-87888000D01*
X149678284Y-87959429D01*
X149606855Y-88102286D01*
X149606855Y-88530857D01*
X149678284Y-88673714D01*
X149749713Y-88745143D01*
X149892570Y-88816571D01*
X150106855Y-88816571D01*
X148749712Y-88816571D02*
X148892570Y-88745143D01*
X148963998Y-88602286D01*
X148963998Y-87316571D01*
X147963998Y-88816571D02*
X148106856Y-88745143D01*
X148178284Y-88602286D01*
X148178284Y-87316571D01*
X146821142Y-88745143D02*
X146963999Y-88816571D01*
X147249713Y-88816571D01*
X147392570Y-88745143D01*
X147463999Y-88602286D01*
X147463999Y-88030857D01*
X147392570Y-87888000D01*
X147249713Y-87816571D01*
X146963999Y-87816571D01*
X146821142Y-87888000D01*
X146749713Y-88030857D01*
X146749713Y-88173714D01*
X147463999Y-88316571D01*
X146106856Y-88816571D02*
X146106856Y-87816571D01*
X146106856Y-88102286D02*
X146035428Y-87959429D01*
X145963999Y-87888000D01*
X145821142Y-87816571D01*
X145678285Y-87816571D01*
D11*
X180085904Y-79002000D02*
X180181142Y-78954381D01*
X180323999Y-78954381D01*
X180466857Y-79002000D01*
X180562095Y-79097238D01*
X180609714Y-79192476D01*
X180657333Y-79382952D01*
X180657333Y-79525810D01*
X180609714Y-79716286D01*
X180562095Y-79811524D01*
X180466857Y-79906762D01*
X180323999Y-79954381D01*
X180228761Y-79954381D01*
X180085904Y-79906762D01*
X180038285Y-79859143D01*
X180038285Y-79525810D01*
X180228761Y-79525810D01*
X179609714Y-79954381D02*
X179609714Y-78954381D01*
X179038285Y-79954381D01*
X179038285Y-78954381D01*
X178562095Y-79954381D02*
X178562095Y-78954381D01*
X178324000Y-78954381D01*
X178181142Y-79002000D01*
X178085904Y-79097238D01*
X178038285Y-79192476D01*
X177990666Y-79382952D01*
X177990666Y-79525810D01*
X178038285Y-79716286D01*
X178085904Y-79811524D01*
X178181142Y-79906762D01*
X178324000Y-79954381D01*
X178562095Y-79954381D01*
X180339905Y-76414381D02*
X179768476Y-76414381D01*
X180054191Y-77414381D02*
X180054191Y-76414381D01*
X179530381Y-76414381D02*
X178863714Y-77414381D01*
X178863714Y-76414381D02*
X179530381Y-77414381D01*
X179744666Y-74874381D02*
X180078000Y-74398190D01*
X180316095Y-74874381D02*
X180316095Y-73874381D01*
X179935142Y-73874381D01*
X179839904Y-73922000D01*
X179792285Y-73969619D01*
X179744666Y-74064857D01*
X179744666Y-74207714D01*
X179792285Y-74302952D01*
X179839904Y-74350571D01*
X179935142Y-74398190D01*
X180316095Y-74398190D01*
X179411333Y-73874381D02*
X178744666Y-74874381D01*
X178744666Y-73874381D02*
X179411333Y-74874381D01*
X180816095Y-71334381D02*
X180197047Y-71334381D01*
X180530381Y-71715333D01*
X180387523Y-71715333D01*
X180292285Y-71762952D01*
X180244666Y-71810571D01*
X180197047Y-71905810D01*
X180197047Y-72143905D01*
X180244666Y-72239143D01*
X180292285Y-72286762D01*
X180387523Y-72334381D01*
X180673238Y-72334381D01*
X180768476Y-72286762D01*
X180816095Y-72239143D01*
X179911333Y-71334381D02*
X179578000Y-72334381D01*
X179244666Y-71334381D01*
X179006571Y-71334381D02*
X178387523Y-71334381D01*
X178720857Y-71715333D01*
X178577999Y-71715333D01*
X178482761Y-71762952D01*
X178435142Y-71810571D01*
X178387523Y-71905810D01*
X178387523Y-72143905D01*
X178435142Y-72239143D01*
X178482761Y-72286762D01*
X178577999Y-72334381D01*
X178863714Y-72334381D01*
X178958952Y-72286762D01*
X179006571Y-72239143D01*
D13*
X139700000Y-82804000D02*
X138176000Y-81280000D01*
X139700000Y-79756000D02*
X139700000Y-82804000D01*
X138176000Y-81280000D02*
X139700000Y-79756000D01*
X184658000Y-75438000D02*
X186182000Y-73914000D01*
X186182000Y-73914000D02*
X186182000Y-76962000D01*
X186182000Y-76962000D02*
X184658000Y-75438000D01*
X186182000Y-86360000D02*
X184658000Y-84836000D01*
X186182000Y-83312000D02*
X186182000Y-86360000D01*
X184658000Y-84836000D02*
X186182000Y-83312000D01*
D11*
X180339904Y-85860000D02*
X180435142Y-85812381D01*
X180577999Y-85812381D01*
X180720857Y-85860000D01*
X180816095Y-85955238D01*
X180863714Y-86050476D01*
X180911333Y-86240952D01*
X180911333Y-86383810D01*
X180863714Y-86574286D01*
X180816095Y-86669524D01*
X180720857Y-86764762D01*
X180577999Y-86812381D01*
X180482761Y-86812381D01*
X180339904Y-86764762D01*
X180292285Y-86717143D01*
X180292285Y-86383810D01*
X180482761Y-86383810D01*
X179863714Y-86812381D02*
X179863714Y-85812381D01*
X179292285Y-86812381D01*
X179292285Y-85812381D01*
X178816095Y-86812381D02*
X178816095Y-85812381D01*
X178578000Y-85812381D01*
X178435142Y-85860000D01*
X178339904Y-85955238D01*
X178292285Y-86050476D01*
X178244666Y-86240952D01*
X178244666Y-86383810D01*
X178292285Y-86574286D01*
X178339904Y-86669524D01*
X178435142Y-86764762D01*
X178578000Y-86812381D01*
X178816095Y-86812381D01*
X181117714Y-83891429D02*
X180355809Y-83891429D01*
X180736761Y-84272381D02*
X180736761Y-83510476D01*
X179403428Y-83272381D02*
X179879619Y-83272381D01*
X179927238Y-83748571D01*
X179879619Y-83700952D01*
X179784381Y-83653333D01*
X179546285Y-83653333D01*
X179451047Y-83700952D01*
X179403428Y-83748571D01*
X179355809Y-83843810D01*
X179355809Y-84081905D01*
X179403428Y-84177143D01*
X179451047Y-84224762D01*
X179546285Y-84272381D01*
X179784381Y-84272381D01*
X179879619Y-84224762D01*
X179927238Y-84177143D01*
X179070095Y-83272381D02*
X178736762Y-84272381D01*
X178403428Y-83272381D01*
X142954190Y-84844000D02*
X143049428Y-84796381D01*
X143192285Y-84796381D01*
X143335143Y-84844000D01*
X143430381Y-84939238D01*
X143478000Y-85034476D01*
X143525619Y-85224952D01*
X143525619Y-85367810D01*
X143478000Y-85558286D01*
X143430381Y-85653524D01*
X143335143Y-85748762D01*
X143192285Y-85796381D01*
X143097047Y-85796381D01*
X142954190Y-85748762D01*
X142906571Y-85701143D01*
X142906571Y-85367810D01*
X143097047Y-85367810D01*
X142478000Y-85796381D02*
X142478000Y-84796381D01*
X142097047Y-84796381D01*
X142001809Y-84844000D01*
X141954190Y-84891619D01*
X141906571Y-84986857D01*
X141906571Y-85129714D01*
X141954190Y-85224952D01*
X142001809Y-85272571D01*
X142097047Y-85320190D01*
X142478000Y-85320190D01*
X141478000Y-85796381D02*
X141478000Y-84796381D01*
X140811334Y-84796381D02*
X140620857Y-84796381D01*
X140525619Y-84844000D01*
X140430381Y-84939238D01*
X140382762Y-85129714D01*
X140382762Y-85463048D01*
X140430381Y-85653524D01*
X140525619Y-85748762D01*
X140620857Y-85796381D01*
X140811334Y-85796381D01*
X140906572Y-85748762D01*
X141001810Y-85653524D01*
X141049429Y-85463048D01*
X141049429Y-85129714D01*
X141001810Y-84939238D01*
X140906572Y-84844000D01*
X140811334Y-84796381D01*
X140001810Y-84891619D02*
X139954191Y-84844000D01*
X139858953Y-84796381D01*
X139620857Y-84796381D01*
X139525619Y-84844000D01*
X139478000Y-84891619D01*
X139430381Y-84986857D01*
X139430381Y-85082095D01*
X139478000Y-85224952D01*
X140049429Y-85796381D01*
X139430381Y-85796381D01*
X143271714Y-82875429D02*
X142509809Y-82875429D01*
X142890761Y-83256381D02*
X142890761Y-82494476D01*
X141557428Y-82256381D02*
X142033619Y-82256381D01*
X142081238Y-82732571D01*
X142033619Y-82684952D01*
X141938381Y-82637333D01*
X141700285Y-82637333D01*
X141605047Y-82684952D01*
X141557428Y-82732571D01*
X141509809Y-82827810D01*
X141509809Y-83065905D01*
X141557428Y-83161143D01*
X141605047Y-83208762D01*
X141700285Y-83256381D01*
X141938381Y-83256381D01*
X142033619Y-83208762D01*
X142081238Y-83161143D01*
X141224095Y-82256381D02*
X140890762Y-83256381D01*
X140557428Y-82256381D01*
X146312000Y-73739620D02*
X146264381Y-73644382D01*
X146264381Y-73501525D01*
X146312000Y-73358667D01*
X146407238Y-73263429D01*
X146502476Y-73215810D01*
X146692952Y-73168191D01*
X146835810Y-73168191D01*
X147026286Y-73215810D01*
X147121524Y-73263429D01*
X147216762Y-73358667D01*
X147264381Y-73501525D01*
X147264381Y-73596763D01*
X147216762Y-73739620D01*
X147169143Y-73787239D01*
X146835810Y-73787239D01*
X146835810Y-73596763D01*
X147264381Y-74215810D02*
X146264381Y-74215810D01*
X146264381Y-74596763D01*
X146312000Y-74692001D01*
X146359619Y-74739620D01*
X146454857Y-74787239D01*
X146597714Y-74787239D01*
X146692952Y-74739620D01*
X146740571Y-74692001D01*
X146788190Y-74596763D01*
X146788190Y-74215810D01*
X147264381Y-75215810D02*
X146264381Y-75215810D01*
X146264381Y-75882476D02*
X146264381Y-76072953D01*
X146312000Y-76168191D01*
X146407238Y-76263429D01*
X146597714Y-76311048D01*
X146931048Y-76311048D01*
X147121524Y-76263429D01*
X147216762Y-76168191D01*
X147264381Y-76072953D01*
X147264381Y-75882476D01*
X147216762Y-75787238D01*
X147121524Y-75692000D01*
X146931048Y-75644381D01*
X146597714Y-75644381D01*
X146407238Y-75692000D01*
X146312000Y-75787238D01*
X146264381Y-75882476D01*
X147264381Y-77263429D02*
X147264381Y-76692000D01*
X147264381Y-76977714D02*
X146264381Y-76977714D01*
X146407238Y-76882476D01*
X146502476Y-76787238D01*
X146550095Y-76692000D01*
X146359619Y-77644381D02*
X146312000Y-77692000D01*
X146264381Y-77787238D01*
X146264381Y-78025334D01*
X146312000Y-78120572D01*
X146359619Y-78168191D01*
X146454857Y-78215810D01*
X146550095Y-78215810D01*
X146692952Y-78168191D01*
X147264381Y-77596762D01*
X147264381Y-78215810D01*
X148852000Y-73739620D02*
X148804381Y-73644382D01*
X148804381Y-73501525D01*
X148852000Y-73358667D01*
X148947238Y-73263429D01*
X149042476Y-73215810D01*
X149232952Y-73168191D01*
X149375810Y-73168191D01*
X149566286Y-73215810D01*
X149661524Y-73263429D01*
X149756762Y-73358667D01*
X149804381Y-73501525D01*
X149804381Y-73596763D01*
X149756762Y-73739620D01*
X149709143Y-73787239D01*
X149375810Y-73787239D01*
X149375810Y-73596763D01*
X149804381Y-74215810D02*
X148804381Y-74215810D01*
X148804381Y-74596763D01*
X148852000Y-74692001D01*
X148899619Y-74739620D01*
X148994857Y-74787239D01*
X149137714Y-74787239D01*
X149232952Y-74739620D01*
X149280571Y-74692001D01*
X149328190Y-74596763D01*
X149328190Y-74215810D01*
X149804381Y-75215810D02*
X148804381Y-75215810D01*
X148804381Y-75882476D02*
X148804381Y-76072953D01*
X148852000Y-76168191D01*
X148947238Y-76263429D01*
X149137714Y-76311048D01*
X149471048Y-76311048D01*
X149661524Y-76263429D01*
X149756762Y-76168191D01*
X149804381Y-76072953D01*
X149804381Y-75882476D01*
X149756762Y-75787238D01*
X149661524Y-75692000D01*
X149471048Y-75644381D01*
X149137714Y-75644381D01*
X148947238Y-75692000D01*
X148852000Y-75787238D01*
X148804381Y-75882476D01*
X149804381Y-77263429D02*
X149804381Y-76692000D01*
X149804381Y-76977714D02*
X148804381Y-76977714D01*
X148947238Y-76882476D01*
X149042476Y-76787238D01*
X149090095Y-76692000D01*
X149137714Y-78120572D02*
X149804381Y-78120572D01*
X148756762Y-77882476D02*
X149471048Y-77644381D01*
X149471048Y-78263429D01*
X142747904Y-79764000D02*
X142843142Y-79716381D01*
X142985999Y-79716381D01*
X143128857Y-79764000D01*
X143224095Y-79859238D01*
X143271714Y-79954476D01*
X143319333Y-80144952D01*
X143319333Y-80287810D01*
X143271714Y-80478286D01*
X143224095Y-80573524D01*
X143128857Y-80668762D01*
X142985999Y-80716381D01*
X142890761Y-80716381D01*
X142747904Y-80668762D01*
X142700285Y-80621143D01*
X142700285Y-80287810D01*
X142890761Y-80287810D01*
X142271714Y-80716381D02*
X142271714Y-79716381D01*
X141700285Y-80716381D01*
X141700285Y-79716381D01*
X141224095Y-80716381D02*
X141224095Y-79716381D01*
X140986000Y-79716381D01*
X140843142Y-79764000D01*
X140747904Y-79859238D01*
X140700285Y-79954476D01*
X140652666Y-80144952D01*
X140652666Y-80287810D01*
X140700285Y-80478286D01*
X140747904Y-80573524D01*
X140843142Y-80668762D01*
X140986000Y-80716381D01*
X141224095Y-80716381D01*
X143772000Y-73739620D02*
X143724381Y-73644382D01*
X143724381Y-73501525D01*
X143772000Y-73358667D01*
X143867238Y-73263429D01*
X143962476Y-73215810D01*
X144152952Y-73168191D01*
X144295810Y-73168191D01*
X144486286Y-73215810D01*
X144581524Y-73263429D01*
X144676762Y-73358667D01*
X144724381Y-73501525D01*
X144724381Y-73596763D01*
X144676762Y-73739620D01*
X144629143Y-73787239D01*
X144295810Y-73787239D01*
X144295810Y-73596763D01*
X144724381Y-74215810D02*
X143724381Y-74215810D01*
X143724381Y-74596763D01*
X143772000Y-74692001D01*
X143819619Y-74739620D01*
X143914857Y-74787239D01*
X144057714Y-74787239D01*
X144152952Y-74739620D01*
X144200571Y-74692001D01*
X144248190Y-74596763D01*
X144248190Y-74215810D01*
X144724381Y-75215810D02*
X143724381Y-75215810D01*
X143724381Y-75882476D02*
X143724381Y-76072953D01*
X143772000Y-76168191D01*
X143867238Y-76263429D01*
X144057714Y-76311048D01*
X144391048Y-76311048D01*
X144581524Y-76263429D01*
X144676762Y-76168191D01*
X144724381Y-76072953D01*
X144724381Y-75882476D01*
X144676762Y-75787238D01*
X144581524Y-75692000D01*
X144391048Y-75644381D01*
X144057714Y-75644381D01*
X143867238Y-75692000D01*
X143772000Y-75787238D01*
X143724381Y-75882476D01*
X144724381Y-77263429D02*
X144724381Y-76692000D01*
X144724381Y-76977714D02*
X143724381Y-76977714D01*
X143867238Y-76882476D01*
X143962476Y-76787238D01*
X144010095Y-76692000D01*
X143724381Y-77596762D02*
X143724381Y-78215810D01*
X144105333Y-77882476D01*
X144105333Y-78025334D01*
X144152952Y-78120572D01*
X144200571Y-78168191D01*
X144295810Y-78215810D01*
X144533905Y-78215810D01*
X144629143Y-78168191D01*
X144676762Y-78120572D01*
X144724381Y-78025334D01*
X144724381Y-77739619D01*
X144676762Y-77644381D01*
X144629143Y-77596762D01*
X141232000Y-73660096D02*
X141184381Y-73564858D01*
X141184381Y-73422001D01*
X141232000Y-73279143D01*
X141327238Y-73183905D01*
X141422476Y-73136286D01*
X141612952Y-73088667D01*
X141755810Y-73088667D01*
X141946286Y-73136286D01*
X142041524Y-73183905D01*
X142136762Y-73279143D01*
X142184381Y-73422001D01*
X142184381Y-73517239D01*
X142136762Y-73660096D01*
X142089143Y-73707715D01*
X141755810Y-73707715D01*
X141755810Y-73517239D01*
X142184381Y-74136286D02*
X141184381Y-74136286D01*
X142184381Y-74707715D01*
X141184381Y-74707715D01*
X142184381Y-75183905D02*
X141184381Y-75183905D01*
X141184381Y-75422000D01*
X141232000Y-75564858D01*
X141327238Y-75660096D01*
X141422476Y-75707715D01*
X141612952Y-75755334D01*
X141755810Y-75755334D01*
X141946286Y-75707715D01*
X142041524Y-75660096D01*
X142136762Y-75564858D01*
X142184381Y-75422000D01*
X142184381Y-75183905D01*
D14*
G36*
X178069240Y-77167740D02*
X177985420Y-77010260D01*
X177764440Y-76657200D01*
X177436780Y-76156820D01*
X177040540Y-75565000D01*
X176639220Y-74970640D01*
X176311560Y-74482960D01*
X176093120Y-74140060D01*
X176011840Y-73997820D01*
X176039780Y-73921620D01*
X176176940Y-73637140D01*
X176390300Y-73228200D01*
X176512220Y-72991980D01*
X176674780Y-72613520D01*
X176707800Y-72428100D01*
X176657000Y-72397620D01*
X176367440Y-72260460D01*
X175877220Y-72042020D01*
X175226980Y-71760080D01*
X174464980Y-71434960D01*
X173644560Y-71089520D01*
X172806360Y-70739000D01*
X172008800Y-70408800D01*
X171289980Y-70114160D01*
X170705780Y-69880480D01*
X170301920Y-69725540D01*
X170126660Y-69667120D01*
X170088560Y-69684900D01*
X169905680Y-69872860D01*
X169659300Y-70203060D01*
X169085260Y-70909180D01*
X168208960Y-71610220D01*
X167215820Y-72039480D01*
X166110920Y-72179180D01*
X165089840Y-72059800D01*
X164099240Y-71655940D01*
X163215320Y-70972680D01*
X162557460Y-70139560D01*
X162143440Y-69166740D01*
X162006280Y-68074540D01*
X162125660Y-67025520D01*
X162521900Y-66019680D01*
X163195000Y-65135760D01*
X163626800Y-64762380D01*
X164523420Y-64246760D01*
X165486080Y-63954660D01*
X165732460Y-63921640D01*
X166784020Y-63964820D01*
X167792400Y-64277240D01*
X168699180Y-64833500D01*
X169438320Y-65605660D01*
X169506900Y-65702180D01*
X169773600Y-66060320D01*
X169959020Y-66301620D01*
X170111420Y-66487040D01*
X173342300Y-65145920D01*
X173855380Y-64932560D01*
X174736760Y-64564260D01*
X175498760Y-64239140D01*
X176103280Y-63982600D01*
X176507140Y-63804800D01*
X176669700Y-63723520D01*
X176679860Y-63715900D01*
X176700180Y-63599060D01*
X176611280Y-63350140D01*
X176390300Y-62900560D01*
X176237900Y-62603380D01*
X176072800Y-62260480D01*
X176011840Y-62105540D01*
X176082960Y-61976000D01*
X176298860Y-61645800D01*
X176618900Y-61165740D01*
X177010060Y-60586620D01*
X177383440Y-60040520D01*
X177718720Y-59532520D01*
X177954940Y-59161680D01*
X178048920Y-58986420D01*
X178048920Y-58955940D01*
X177960020Y-58795920D01*
X177718720Y-58508900D01*
X177302160Y-58066940D01*
X176687480Y-57444640D01*
X176596040Y-57350660D01*
X176072800Y-56840120D01*
X175638460Y-56423560D01*
X175326040Y-56144160D01*
X175186340Y-56045100D01*
X175183800Y-56045100D01*
X175008540Y-56136540D01*
X174642780Y-56367680D01*
X174129700Y-56702960D01*
X173530260Y-57111900D01*
X171975780Y-58181240D01*
X170510200Y-57594500D01*
X170060620Y-57414160D01*
X169514520Y-57185560D01*
X169128440Y-57015380D01*
X168958260Y-56929020D01*
X168902380Y-56769000D01*
X168805860Y-56365140D01*
X168683940Y-55786020D01*
X168554400Y-55092600D01*
X168432480Y-54432200D01*
X168320720Y-53832760D01*
X168236900Y-53400960D01*
X168198800Y-53207920D01*
X168170860Y-53162200D01*
X168076880Y-53121560D01*
X167873680Y-53096160D01*
X167510460Y-53080920D01*
X166938960Y-53073300D01*
X166110920Y-53073300D01*
X166022020Y-53073300D01*
X165232080Y-53080920D01*
X164604700Y-53096160D01*
X164188140Y-53119020D01*
X164025580Y-53144420D01*
X164025580Y-53146960D01*
X163979860Y-53332380D01*
X163890960Y-53754020D01*
X163774120Y-54350920D01*
X163639500Y-55064660D01*
X163629340Y-55107840D01*
X163492180Y-55819040D01*
X163367720Y-56410860D01*
X163273740Y-56827420D01*
X163217860Y-57002680D01*
X163167060Y-57040780D01*
X162890200Y-57183020D01*
X162450780Y-57386220D01*
X161914840Y-57622440D01*
X161356040Y-57853580D01*
X160855660Y-58054240D01*
X160482280Y-58188860D01*
X160312100Y-58229500D01*
X160307020Y-58226960D01*
X160136840Y-58120280D01*
X159771080Y-57876440D01*
X159260540Y-57531000D01*
X158656020Y-57116980D01*
X158610300Y-57086500D01*
X158010860Y-56680100D01*
X157505400Y-56347360D01*
X157142180Y-56126380D01*
X156979620Y-56045100D01*
X156969460Y-56045100D01*
X156789120Y-56182260D01*
X156448760Y-56487060D01*
X155991560Y-56923940D01*
X155463240Y-57449720D01*
X155298140Y-57614820D01*
X154729180Y-58199020D01*
X154358340Y-58605420D01*
X154157680Y-58856880D01*
X154114500Y-58976260D01*
X154117040Y-58981340D01*
X154226260Y-59161680D01*
X154472640Y-59540140D01*
X154820620Y-60055760D01*
X155234640Y-60662820D01*
X155265120Y-60706000D01*
X155671520Y-61305440D01*
X156009340Y-61805820D01*
X156243020Y-62158880D01*
X156337000Y-62313820D01*
X156337000Y-62341760D01*
X156265880Y-62585600D01*
X156116020Y-63012320D01*
X155912820Y-63535560D01*
X155691840Y-64091820D01*
X155478480Y-64594740D01*
X155305760Y-64973200D01*
X155204160Y-65151000D01*
X155196540Y-65156080D01*
X154980640Y-65219580D01*
X154533600Y-65323720D01*
X153913840Y-65450720D01*
X153179780Y-65590420D01*
X153062940Y-65613280D01*
X152346660Y-65747900D01*
X151757380Y-65862200D01*
X151348440Y-65946020D01*
X151180800Y-65986660D01*
X151157940Y-66088260D01*
X151132540Y-66438780D01*
X151117300Y-66972180D01*
X151112220Y-67617340D01*
X151114760Y-68300600D01*
X151130000Y-68963540D01*
X151150320Y-69529960D01*
X151178260Y-69933820D01*
X151211280Y-70104000D01*
X151221440Y-70111620D01*
X151442420Y-70172580D01*
X151892000Y-70271640D01*
X152514300Y-70398640D01*
X153248360Y-70538340D01*
X153380440Y-70563740D01*
X154091640Y-70698360D01*
X154675840Y-70817740D01*
X155079700Y-70904100D01*
X155237180Y-70949820D01*
X155270200Y-71013320D01*
X155399740Y-71307960D01*
X155597860Y-71785480D01*
X155836620Y-72377300D01*
X156392880Y-73751440D01*
X155239720Y-75432920D01*
X155133040Y-75587860D01*
X154721560Y-76194920D01*
X154391360Y-76692760D01*
X154167840Y-77038200D01*
X154086560Y-77180440D01*
X154091640Y-77193140D01*
X154238960Y-77360780D01*
X154551380Y-77693520D01*
X154993340Y-78148180D01*
X155521660Y-78681580D01*
X155915360Y-79072740D01*
X156387800Y-79535020D01*
X156705300Y-79829660D01*
X156908500Y-79989680D01*
X157032960Y-80048100D01*
X157114240Y-80032860D01*
X157286960Y-79923640D01*
X157655260Y-79677260D01*
X158168340Y-79329280D01*
X158762700Y-78920340D01*
X159260540Y-78585060D01*
X159826960Y-78216760D01*
X160230820Y-77980540D01*
X160426400Y-77896720D01*
X160507680Y-77919580D01*
X160837880Y-78033880D01*
X161335720Y-78237080D01*
X161930080Y-78488540D01*
X163261040Y-79075280D01*
X163431220Y-79949040D01*
X163530280Y-80477360D01*
X163672520Y-81216500D01*
X163809680Y-81927700D01*
X164025580Y-83032600D01*
X168094660Y-83070700D01*
X168168320Y-82900520D01*
X168211500Y-82737960D01*
X168302940Y-82326480D01*
X168419780Y-81742280D01*
X168549320Y-81051400D01*
X168658540Y-80462120D01*
X168770300Y-79870300D01*
X168854120Y-79446120D01*
X168894760Y-79258160D01*
X168958260Y-79209900D01*
X169245280Y-79060040D01*
X169699940Y-78851760D01*
X170248580Y-78615540D01*
X170820080Y-78376780D01*
X171343320Y-78168500D01*
X171742100Y-78023720D01*
X171950380Y-77967840D01*
X172105320Y-78051660D01*
X172455840Y-78272640D01*
X172951140Y-78600300D01*
X173540420Y-79004160D01*
X174129700Y-79405480D01*
X174632620Y-79745840D01*
X174995840Y-79984600D01*
X175160940Y-80081120D01*
X175272700Y-80032860D01*
X175557180Y-79796640D01*
X176019460Y-79352140D01*
X176672240Y-78691740D01*
X176776380Y-78585060D01*
X177281840Y-78056740D01*
X177690780Y-77614780D01*
X177967640Y-77304900D01*
X178069240Y-77167740D01*
X178069240Y-77167740D01*
G37*
X178069240Y-77167740D02*
X177985420Y-77010260D01*
X177764440Y-76657200D01*
X177436780Y-76156820D01*
X177040540Y-75565000D01*
X176639220Y-74970640D01*
X176311560Y-74482960D01*
X176093120Y-74140060D01*
X176011840Y-73997820D01*
X176039780Y-73921620D01*
X176176940Y-73637140D01*
X176390300Y-73228200D01*
X176512220Y-72991980D01*
X176674780Y-72613520D01*
X176707800Y-72428100D01*
X176657000Y-72397620D01*
X176367440Y-72260460D01*
X175877220Y-72042020D01*
X175226980Y-71760080D01*
X174464980Y-71434960D01*
X173644560Y-71089520D01*
X172806360Y-70739000D01*
X172008800Y-70408800D01*
X171289980Y-70114160D01*
X170705780Y-69880480D01*
X170301920Y-69725540D01*
X170126660Y-69667120D01*
X170088560Y-69684900D01*
X169905680Y-69872860D01*
X169659300Y-70203060D01*
X169085260Y-70909180D01*
X168208960Y-71610220D01*
X167215820Y-72039480D01*
X166110920Y-72179180D01*
X165089840Y-72059800D01*
X164099240Y-71655940D01*
X163215320Y-70972680D01*
X162557460Y-70139560D01*
X162143440Y-69166740D01*
X162006280Y-68074540D01*
X162125660Y-67025520D01*
X162521900Y-66019680D01*
X163195000Y-65135760D01*
X163626800Y-64762380D01*
X164523420Y-64246760D01*
X165486080Y-63954660D01*
X165732460Y-63921640D01*
X166784020Y-63964820D01*
X167792400Y-64277240D01*
X168699180Y-64833500D01*
X169438320Y-65605660D01*
X169506900Y-65702180D01*
X169773600Y-66060320D01*
X169959020Y-66301620D01*
X170111420Y-66487040D01*
X173342300Y-65145920D01*
X173855380Y-64932560D01*
X174736760Y-64564260D01*
X175498760Y-64239140D01*
X176103280Y-63982600D01*
X176507140Y-63804800D01*
X176669700Y-63723520D01*
X176679860Y-63715900D01*
X176700180Y-63599060D01*
X176611280Y-63350140D01*
X176390300Y-62900560D01*
X176237900Y-62603380D01*
X176072800Y-62260480D01*
X176011840Y-62105540D01*
X176082960Y-61976000D01*
X176298860Y-61645800D01*
X176618900Y-61165740D01*
X177010060Y-60586620D01*
X177383440Y-60040520D01*
X177718720Y-59532520D01*
X177954940Y-59161680D01*
X178048920Y-58986420D01*
X178048920Y-58955940D01*
X177960020Y-58795920D01*
X177718720Y-58508900D01*
X177302160Y-58066940D01*
X176687480Y-57444640D01*
X176596040Y-57350660D01*
X176072800Y-56840120D01*
X175638460Y-56423560D01*
X175326040Y-56144160D01*
X175186340Y-56045100D01*
X175183800Y-56045100D01*
X175008540Y-56136540D01*
X174642780Y-56367680D01*
X174129700Y-56702960D01*
X173530260Y-57111900D01*
X171975780Y-58181240D01*
X170510200Y-57594500D01*
X170060620Y-57414160D01*
X169514520Y-57185560D01*
X169128440Y-57015380D01*
X168958260Y-56929020D01*
X168902380Y-56769000D01*
X168805860Y-56365140D01*
X168683940Y-55786020D01*
X168554400Y-55092600D01*
X168432480Y-54432200D01*
X168320720Y-53832760D01*
X168236900Y-53400960D01*
X168198800Y-53207920D01*
X168170860Y-53162200D01*
X168076880Y-53121560D01*
X167873680Y-53096160D01*
X167510460Y-53080920D01*
X166938960Y-53073300D01*
X166110920Y-53073300D01*
X166022020Y-53073300D01*
X165232080Y-53080920D01*
X164604700Y-53096160D01*
X164188140Y-53119020D01*
X164025580Y-53144420D01*
X164025580Y-53146960D01*
X163979860Y-53332380D01*
X163890960Y-53754020D01*
X163774120Y-54350920D01*
X163639500Y-55064660D01*
X163629340Y-55107840D01*
X163492180Y-55819040D01*
X163367720Y-56410860D01*
X163273740Y-56827420D01*
X163217860Y-57002680D01*
X163167060Y-57040780D01*
X162890200Y-57183020D01*
X162450780Y-57386220D01*
X161914840Y-57622440D01*
X161356040Y-57853580D01*
X160855660Y-58054240D01*
X160482280Y-58188860D01*
X160312100Y-58229500D01*
X160307020Y-58226960D01*
X160136840Y-58120280D01*
X159771080Y-57876440D01*
X159260540Y-57531000D01*
X158656020Y-57116980D01*
X158610300Y-57086500D01*
X158010860Y-56680100D01*
X157505400Y-56347360D01*
X157142180Y-56126380D01*
X156979620Y-56045100D01*
X156969460Y-56045100D01*
X156789120Y-56182260D01*
X156448760Y-56487060D01*
X155991560Y-56923940D01*
X155463240Y-57449720D01*
X155298140Y-57614820D01*
X154729180Y-58199020D01*
X154358340Y-58605420D01*
X154157680Y-58856880D01*
X154114500Y-58976260D01*
X154117040Y-58981340D01*
X154226260Y-59161680D01*
X154472640Y-59540140D01*
X154820620Y-60055760D01*
X155234640Y-60662820D01*
X155265120Y-60706000D01*
X155671520Y-61305440D01*
X156009340Y-61805820D01*
X156243020Y-62158880D01*
X156337000Y-62313820D01*
X156337000Y-62341760D01*
X156265880Y-62585600D01*
X156116020Y-63012320D01*
X155912820Y-63535560D01*
X155691840Y-64091820D01*
X155478480Y-64594740D01*
X155305760Y-64973200D01*
X155204160Y-65151000D01*
X155196540Y-65156080D01*
X154980640Y-65219580D01*
X154533600Y-65323720D01*
X153913840Y-65450720D01*
X153179780Y-65590420D01*
X153062940Y-65613280D01*
X152346660Y-65747900D01*
X151757380Y-65862200D01*
X151348440Y-65946020D01*
X151180800Y-65986660D01*
X151157940Y-66088260D01*
X151132540Y-66438780D01*
X151117300Y-66972180D01*
X151112220Y-67617340D01*
X151114760Y-68300600D01*
X151130000Y-68963540D01*
X151150320Y-69529960D01*
X151178260Y-69933820D01*
X151211280Y-70104000D01*
X151221440Y-70111620D01*
X151442420Y-70172580D01*
X151892000Y-70271640D01*
X152514300Y-70398640D01*
X153248360Y-70538340D01*
X153380440Y-70563740D01*
X154091640Y-70698360D01*
X154675840Y-70817740D01*
X155079700Y-70904100D01*
X155237180Y-70949820D01*
X155270200Y-71013320D01*
X155399740Y-71307960D01*
X155597860Y-71785480D01*
X155836620Y-72377300D01*
X156392880Y-73751440D01*
X155239720Y-75432920D01*
X155133040Y-75587860D01*
X154721560Y-76194920D01*
X154391360Y-76692760D01*
X154167840Y-77038200D01*
X154086560Y-77180440D01*
X154091640Y-77193140D01*
X154238960Y-77360780D01*
X154551380Y-77693520D01*
X154993340Y-78148180D01*
X155521660Y-78681580D01*
X155915360Y-79072740D01*
X156387800Y-79535020D01*
X156705300Y-79829660D01*
X156908500Y-79989680D01*
X157032960Y-80048100D01*
X157114240Y-80032860D01*
X157286960Y-79923640D01*
X157655260Y-79677260D01*
X158168340Y-79329280D01*
X158762700Y-78920340D01*
X159260540Y-78585060D01*
X159826960Y-78216760D01*
X160230820Y-77980540D01*
X160426400Y-77896720D01*
X160507680Y-77919580D01*
X160837880Y-78033880D01*
X161335720Y-78237080D01*
X161930080Y-78488540D01*
X163261040Y-79075280D01*
X163431220Y-79949040D01*
X163530280Y-80477360D01*
X163672520Y-81216500D01*
X163809680Y-81927700D01*
X164025580Y-83032600D01*
X168094660Y-83070700D01*
X168168320Y-82900520D01*
X168211500Y-82737960D01*
X168302940Y-82326480D01*
X168419780Y-81742280D01*
X168549320Y-81051400D01*
X168658540Y-80462120D01*
X168770300Y-79870300D01*
X168854120Y-79446120D01*
X168894760Y-79258160D01*
X168958260Y-79209900D01*
X169245280Y-79060040D01*
X169699940Y-78851760D01*
X170248580Y-78615540D01*
X170820080Y-78376780D01*
X171343320Y-78168500D01*
X171742100Y-78023720D01*
X171950380Y-77967840D01*
X172105320Y-78051660D01*
X172455840Y-78272640D01*
X172951140Y-78600300D01*
X173540420Y-79004160D01*
X174129700Y-79405480D01*
X174632620Y-79745840D01*
X174995840Y-79984600D01*
X175160940Y-80081120D01*
X175272700Y-80032860D01*
X175557180Y-79796640D01*
X176019460Y-79352140D01*
X176672240Y-78691740D01*
X176776380Y-78585060D01*
X177281840Y-78056740D01*
X177690780Y-77614780D01*
X177967640Y-77304900D01*
X178069240Y-77167740D01*
D15*
G36*
X186055000Y-86053394D02*
X184837606Y-84836000D01*
X186055000Y-83618606D01*
X186055000Y-86053394D01*
X186055000Y-86053394D01*
G37*
X186055000Y-86053394D02*
X184837606Y-84836000D01*
X186055000Y-83618606D01*
X186055000Y-86053394D01*
G36*
X186055000Y-76655394D02*
X184837606Y-75438000D01*
X186055000Y-74220606D01*
X186055000Y-76655394D01*
X186055000Y-76655394D01*
G37*
X186055000Y-76655394D02*
X184837606Y-75438000D01*
X186055000Y-74220606D01*
X186055000Y-76655394D01*
G36*
X139573000Y-82497394D02*
X138355606Y-81280000D01*
X139573000Y-80062606D01*
X139573000Y-82497394D01*
X139573000Y-82497394D01*
G37*
X139573000Y-82497394D02*
X138355606Y-81280000D01*
X139573000Y-80062606D01*
X139573000Y-82497394D01*
%LPC*%
D16*
X182626000Y-71882000D03*
D17*
X182626000Y-74422000D03*
X182626000Y-76962000D03*
X182626000Y-79502000D03*
D18*
X149352000Y-71374000D03*
D19*
X146812000Y-71374000D03*
X144272000Y-71374000D03*
X141732000Y-71374000D03*
D16*
X145034000Y-85344000D03*
D17*
X145034000Y-82804000D03*
X145034000Y-80264000D03*
D20*
X182626000Y-83820000D03*
D21*
X182626000Y-86360000D03*
D22*
X173990000Y-75414000D03*
X173990000Y-72414000D03*
D23*
X149668000Y-82062000D03*
X169452000Y-85852000D03*
M02*
