G04 #@! TF.FileFunction,Legend,Top*
%FSLAX46Y46*%
G04 Gerber Fmt 4.6, Leading zero omitted, Abs format (unit mm)*
G04 Created by KiCad (PCBNEW 0.201510170916+6271~30~ubuntu14.04.1-product) date Tue 27 Oct 2015 04:13:56 PM CET*
%MOMM*%
G01*
G04 APERTURE LIST*
%ADD10C,0.100000*%
%ADD11C,0.150000*%
%ADD12C,0.127000*%
%ADD13C,0.002540*%
%ADD14C,0.250000*%
%ADD15R,1.900000X1.400000*%
%ADD16R,1.650000X1.900000*%
%ADD17R,1.924000X2.432000*%
%ADD18R,2.432000X2.127200*%
%ADD19O,2.432000X2.127200*%
%ADD20R,2.127200X2.432000*%
%ADD21O,2.127200X2.432000*%
%ADD22R,2.432000X2.432000*%
%ADD23O,2.432000X2.432000*%
%ADD24R,3.050000X1.800000*%
%ADD25R,2.000000X1.400000*%
%ADD26C,1.400000*%
%ADD27R,2.300000X3.650000*%
%ADD28R,2.300000X1.350000*%
%ADD29C,3.400000*%
G04 APERTURE END LIST*
D10*
D11*
X153920000Y-87122000D02*
X166120000Y-87122000D01*
X153920000Y-69722000D02*
X153920000Y-87122000D01*
X153920000Y-69722000D02*
X166120000Y-69722000D01*
X166120000Y-69722000D02*
X166120000Y-87122000D01*
X180428000Y-85336000D02*
X180428000Y-84336000D01*
X178728000Y-84336000D02*
X178728000Y-85336000D01*
D12*
X171758000Y-85625000D02*
X171758000Y-88111000D01*
X171658000Y-85625000D02*
X171658000Y-88111000D01*
X171558000Y-85625000D02*
X171558000Y-88111000D01*
X171858000Y-85625000D02*
X171858000Y-88111000D01*
X171558000Y-88111000D02*
X173559000Y-88111000D01*
X175387000Y-85625000D02*
X177138000Y-85625000D01*
X177138000Y-85625000D02*
X177138000Y-88111000D01*
X177138000Y-88111000D02*
X175387000Y-88111000D01*
X173609000Y-85625000D02*
X171558000Y-85625000D01*
D11*
X181326000Y-70332000D02*
X181326000Y-71882000D01*
X182626000Y-70332000D02*
X181326000Y-70332000D01*
X186817000Y-71755000D02*
X192659000Y-71755000D01*
X192659000Y-71755000D02*
X192659000Y-72009000D01*
X192659000Y-72009000D02*
X186817000Y-72009000D01*
X186817000Y-72009000D02*
X186817000Y-71882000D01*
X186817000Y-71882000D02*
X192659000Y-71882000D01*
X184150000Y-71628000D02*
X183769000Y-71628000D01*
X184150000Y-72136000D02*
X183769000Y-72136000D01*
X184150000Y-74168000D02*
X183769000Y-74168000D01*
X184150000Y-74676000D02*
X183769000Y-74676000D01*
X184150000Y-76708000D02*
X183769000Y-76708000D01*
X184150000Y-77216000D02*
X183769000Y-77216000D01*
X184150000Y-79756000D02*
X183769000Y-79756000D01*
X184150000Y-79248000D02*
X183769000Y-79248000D01*
X184150000Y-70612000D02*
X186690000Y-70612000D01*
X184150000Y-73152000D02*
X186690000Y-73152000D01*
X184150000Y-73152000D02*
X184150000Y-75692000D01*
X184150000Y-75692000D02*
X186690000Y-75692000D01*
X186690000Y-74168000D02*
X192786000Y-74168000D01*
X192786000Y-74168000D02*
X192786000Y-74676000D01*
X192786000Y-74676000D02*
X186690000Y-74676000D01*
X186690000Y-75692000D02*
X186690000Y-73152000D01*
X186690000Y-73152000D02*
X186690000Y-70612000D01*
X192786000Y-72136000D02*
X186690000Y-72136000D01*
X192786000Y-71628000D02*
X192786000Y-72136000D01*
X186690000Y-71628000D02*
X192786000Y-71628000D01*
X184150000Y-73152000D02*
X186690000Y-73152000D01*
X184150000Y-70612000D02*
X184150000Y-73152000D01*
X184150000Y-78232000D02*
X186690000Y-78232000D01*
X184150000Y-78232000D02*
X184150000Y-80772000D01*
X184150000Y-80772000D02*
X186690000Y-80772000D01*
X186690000Y-79248000D02*
X192786000Y-79248000D01*
X192786000Y-79248000D02*
X192786000Y-79756000D01*
X192786000Y-79756000D02*
X186690000Y-79756000D01*
X186690000Y-80772000D02*
X186690000Y-78232000D01*
X186690000Y-78232000D02*
X186690000Y-75692000D01*
X192786000Y-77216000D02*
X186690000Y-77216000D01*
X192786000Y-76708000D02*
X192786000Y-77216000D01*
X186690000Y-76708000D02*
X192786000Y-76708000D01*
X184150000Y-78232000D02*
X186690000Y-78232000D01*
X184150000Y-75692000D02*
X184150000Y-78232000D01*
X184150000Y-75692000D02*
X186690000Y-75692000D01*
X148082000Y-70104000D02*
X140462000Y-70104000D01*
X148082000Y-72644000D02*
X140462000Y-72644000D01*
X150902000Y-72924000D02*
X149352000Y-72924000D01*
X140462000Y-70104000D02*
X140462000Y-72644000D01*
X148082000Y-72644000D02*
X148082000Y-70104000D01*
X149352000Y-69824000D02*
X150902000Y-69824000D01*
X150902000Y-69824000D02*
X150902000Y-72924000D01*
X146334000Y-86894000D02*
X146334000Y-85344000D01*
X145034000Y-86894000D02*
X146334000Y-86894000D01*
X140843000Y-85471000D02*
X135001000Y-85471000D01*
X135001000Y-85471000D02*
X135001000Y-85217000D01*
X135001000Y-85217000D02*
X140843000Y-85217000D01*
X140843000Y-85217000D02*
X140843000Y-85344000D01*
X140843000Y-85344000D02*
X135001000Y-85344000D01*
X143510000Y-85598000D02*
X143891000Y-85598000D01*
X143510000Y-85090000D02*
X143891000Y-85090000D01*
X143510000Y-83058000D02*
X143891000Y-83058000D01*
X143510000Y-82550000D02*
X143891000Y-82550000D01*
X143510000Y-80518000D02*
X143891000Y-80518000D01*
X143510000Y-80010000D02*
X143891000Y-80010000D01*
X140970000Y-84074000D02*
X140970000Y-86614000D01*
X134874000Y-85090000D02*
X140970000Y-85090000D01*
X134874000Y-85598000D02*
X134874000Y-85090000D01*
X140970000Y-85598000D02*
X134874000Y-85598000D01*
X143510000Y-84074000D02*
X140970000Y-84074000D01*
X143510000Y-86614000D02*
X143510000Y-84074000D01*
X143510000Y-86614000D02*
X140970000Y-86614000D01*
X143510000Y-81534000D02*
X140970000Y-81534000D01*
X143510000Y-81534000D02*
X143510000Y-78994000D01*
X140970000Y-80518000D02*
X134874000Y-80518000D01*
X134874000Y-80518000D02*
X134874000Y-80010000D01*
X134874000Y-80010000D02*
X140970000Y-80010000D01*
X140970000Y-78994000D02*
X140970000Y-81534000D01*
X140970000Y-81534000D02*
X140970000Y-84074000D01*
X134874000Y-82550000D02*
X140970000Y-82550000D01*
X134874000Y-83058000D02*
X134874000Y-82550000D01*
X140970000Y-83058000D02*
X134874000Y-83058000D01*
X143510000Y-81534000D02*
X140970000Y-81534000D01*
X143510000Y-84074000D02*
X143510000Y-81534000D01*
X143510000Y-84074000D02*
X140970000Y-84074000D01*
X143510000Y-78994000D02*
X140970000Y-78994000D01*
X181326000Y-82270000D02*
X181326000Y-83820000D01*
X182626000Y-82270000D02*
X181326000Y-82270000D01*
X186817000Y-83693000D02*
X192659000Y-83693000D01*
X192659000Y-83693000D02*
X192659000Y-83947000D01*
X192659000Y-83947000D02*
X186817000Y-83947000D01*
X186817000Y-83947000D02*
X186817000Y-83820000D01*
X186817000Y-83820000D02*
X192659000Y-83820000D01*
X184150000Y-83566000D02*
X183769000Y-83566000D01*
X184150000Y-84074000D02*
X183769000Y-84074000D01*
X184150000Y-86106000D02*
X183769000Y-86106000D01*
X184150000Y-86614000D02*
X183769000Y-86614000D01*
X184150000Y-82550000D02*
X186690000Y-82550000D01*
X184150000Y-85090000D02*
X186690000Y-85090000D01*
X184150000Y-85090000D02*
X184150000Y-87630000D01*
X184150000Y-87630000D02*
X186690000Y-87630000D01*
X186690000Y-86106000D02*
X192786000Y-86106000D01*
X192786000Y-86106000D02*
X192786000Y-86614000D01*
X192786000Y-86614000D02*
X186690000Y-86614000D01*
X186690000Y-87630000D02*
X186690000Y-85090000D01*
X186690000Y-85090000D02*
X186690000Y-82550000D01*
X192786000Y-84074000D02*
X186690000Y-84074000D01*
X192786000Y-83566000D02*
X192786000Y-84074000D01*
X186690000Y-83566000D02*
X192786000Y-83566000D01*
X184150000Y-85090000D02*
X186690000Y-85090000D01*
X184150000Y-82550000D02*
X184150000Y-85090000D01*
X146304000Y-76708000D02*
X146304000Y-75692000D01*
X143764000Y-75692000D02*
X143764000Y-76708000D01*
X143764000Y-76708000D02*
X146304000Y-76708000D01*
X146304000Y-75692000D02*
X143764000Y-75692000D01*
X148082000Y-76962000D02*
X148082000Y-77470000D01*
X148082000Y-77470000D02*
X141986000Y-77470000D01*
X141986000Y-77470000D02*
X141986000Y-76962000D01*
X141986000Y-75438000D02*
X141986000Y-74930000D01*
X141986000Y-74930000D02*
X148082000Y-74930000D01*
X148082000Y-74930000D02*
X148082000Y-75438000D01*
X175768000Y-72898000D02*
X174752000Y-72898000D01*
X174752000Y-73152000D02*
X175768000Y-73152000D01*
X175768000Y-73406000D02*
X174752000Y-73406000D01*
X174752000Y-72644000D02*
X175768000Y-72644000D01*
X175768000Y-75692000D02*
X174752000Y-75692000D01*
X174752000Y-75692000D02*
X174752000Y-72136000D01*
X174752000Y-72136000D02*
X175768000Y-72136000D01*
X173228000Y-71374000D02*
X173228000Y-76454000D01*
X172720000Y-76454000D02*
X172720000Y-71374000D01*
X173990000Y-77470000D02*
X172212000Y-77470000D01*
X172212000Y-77470000D02*
X172212000Y-70358000D01*
X172212000Y-70358000D02*
X175768000Y-70358000D01*
X175768000Y-70358000D02*
X175768000Y-77470000D01*
X175768000Y-77470000D02*
X173990000Y-77470000D01*
X176090000Y-78988000D02*
X176090000Y-78488000D01*
X176090000Y-78488000D02*
X171890000Y-78488000D01*
X171890000Y-78488000D02*
X171890000Y-80088000D01*
X176090000Y-81288000D02*
X176090000Y-79988000D01*
X176090000Y-83588000D02*
X176090000Y-82288000D01*
X171890000Y-85088000D02*
X176090000Y-85088000D01*
X176090000Y-85088000D02*
X176090000Y-84588000D01*
X171890000Y-85088000D02*
X171890000Y-83488000D01*
D13*
G36*
X162013900Y-82633820D02*
X161899600Y-82583020D01*
X161615120Y-82412840D01*
X161541460Y-82367120D01*
X161269680Y-82247740D01*
X161053780Y-82288380D01*
X160967420Y-82326480D01*
X160820100Y-82362040D01*
X160802320Y-82316320D01*
X160695640Y-82039460D01*
X160538160Y-81597500D01*
X160276540Y-80855820D01*
X160474660Y-80726280D01*
X160759140Y-80408780D01*
X160848040Y-79951580D01*
X160690560Y-79507080D01*
X160301940Y-79197200D01*
X160228280Y-79169260D01*
X159750760Y-79148940D01*
X159362140Y-79369920D01*
X159128460Y-79740760D01*
X159103060Y-80185260D01*
X159344360Y-80614520D01*
X159494220Y-80772000D01*
X159598360Y-80906620D01*
X159588200Y-80939640D01*
X159496760Y-81198720D01*
X159336740Y-81620360D01*
X159311340Y-81683860D01*
X159092900Y-82143600D01*
X158899860Y-82306160D01*
X158694120Y-82204560D01*
X158587440Y-82176620D01*
X158285180Y-82331560D01*
X157995620Y-82501740D01*
X157756860Y-82501740D01*
X157518100Y-82252820D01*
X157289500Y-81955640D01*
X157518100Y-81610200D01*
X157629860Y-81434940D01*
X157700980Y-81206340D01*
X157627320Y-80914240D01*
X157566360Y-80746600D01*
X157416500Y-80566260D01*
X157093920Y-80469740D01*
X156839920Y-80408780D01*
X156690060Y-80291940D01*
X156649420Y-80015080D01*
X156654500Y-79697580D01*
X156799280Y-79517240D01*
X157180280Y-79395320D01*
X157289500Y-79364840D01*
X157561280Y-79232760D01*
X157713680Y-78973680D01*
X157769560Y-78821280D01*
X157777180Y-78610460D01*
X157607000Y-78351380D01*
X157571440Y-78303120D01*
X157431740Y-78056740D01*
X157477460Y-77866240D01*
X157530800Y-77784960D01*
X157787340Y-77528420D01*
X157929580Y-77434440D01*
X158092140Y-77447140D01*
X158381700Y-77622400D01*
X158765240Y-77871320D01*
X159097980Y-77711300D01*
X159331660Y-77569060D01*
X159428180Y-77348080D01*
X159433260Y-77276960D01*
X159512000Y-76926440D01*
X159532320Y-76875640D01*
X159666940Y-76738480D01*
X159979360Y-76708000D01*
X160065720Y-76710540D01*
X160327340Y-76756260D01*
X160444180Y-76926440D01*
X160472120Y-77012800D01*
X160528000Y-77391260D01*
X160535620Y-77500480D01*
X160632140Y-77640180D01*
X160705800Y-77655420D01*
X160977580Y-77767180D01*
X161124900Y-77830680D01*
X161307780Y-77812900D01*
X161599880Y-77630020D01*
X161980880Y-77368400D01*
X162270440Y-77647800D01*
X162450780Y-77843380D01*
X162560000Y-78008480D01*
X162519360Y-78107540D01*
X162346640Y-78366620D01*
X162219640Y-78546960D01*
X162151060Y-78790800D01*
X162275520Y-79105760D01*
X162339020Y-79222600D01*
X162547300Y-79451200D01*
X162877500Y-79502000D01*
X163080700Y-79527400D01*
X163240720Y-79728060D01*
X163288980Y-79910940D01*
X163243260Y-80279240D01*
X163017200Y-80474820D01*
X162623500Y-80556100D01*
X162509200Y-80611980D01*
X162262820Y-80965040D01*
X162090100Y-81335880D01*
X162326320Y-81658460D01*
X162471100Y-81876900D01*
X162560000Y-82059780D01*
X162511740Y-82151220D01*
X162311080Y-82384900D01*
X162158680Y-82529680D01*
X162013900Y-82633820D01*
X162013900Y-82633820D01*
G37*
X162013900Y-82633820D02*
X161899600Y-82583020D01*
X161615120Y-82412840D01*
X161541460Y-82367120D01*
X161269680Y-82247740D01*
X161053780Y-82288380D01*
X160967420Y-82326480D01*
X160820100Y-82362040D01*
X160802320Y-82316320D01*
X160695640Y-82039460D01*
X160538160Y-81597500D01*
X160276540Y-80855820D01*
X160474660Y-80726280D01*
X160759140Y-80408780D01*
X160848040Y-79951580D01*
X160690560Y-79507080D01*
X160301940Y-79197200D01*
X160228280Y-79169260D01*
X159750760Y-79148940D01*
X159362140Y-79369920D01*
X159128460Y-79740760D01*
X159103060Y-80185260D01*
X159344360Y-80614520D01*
X159494220Y-80772000D01*
X159598360Y-80906620D01*
X159588200Y-80939640D01*
X159496760Y-81198720D01*
X159336740Y-81620360D01*
X159311340Y-81683860D01*
X159092900Y-82143600D01*
X158899860Y-82306160D01*
X158694120Y-82204560D01*
X158587440Y-82176620D01*
X158285180Y-82331560D01*
X157995620Y-82501740D01*
X157756860Y-82501740D01*
X157518100Y-82252820D01*
X157289500Y-81955640D01*
X157518100Y-81610200D01*
X157629860Y-81434940D01*
X157700980Y-81206340D01*
X157627320Y-80914240D01*
X157566360Y-80746600D01*
X157416500Y-80566260D01*
X157093920Y-80469740D01*
X156839920Y-80408780D01*
X156690060Y-80291940D01*
X156649420Y-80015080D01*
X156654500Y-79697580D01*
X156799280Y-79517240D01*
X157180280Y-79395320D01*
X157289500Y-79364840D01*
X157561280Y-79232760D01*
X157713680Y-78973680D01*
X157769560Y-78821280D01*
X157777180Y-78610460D01*
X157607000Y-78351380D01*
X157571440Y-78303120D01*
X157431740Y-78056740D01*
X157477460Y-77866240D01*
X157530800Y-77784960D01*
X157787340Y-77528420D01*
X157929580Y-77434440D01*
X158092140Y-77447140D01*
X158381700Y-77622400D01*
X158765240Y-77871320D01*
X159097980Y-77711300D01*
X159331660Y-77569060D01*
X159428180Y-77348080D01*
X159433260Y-77276960D01*
X159512000Y-76926440D01*
X159532320Y-76875640D01*
X159666940Y-76738480D01*
X159979360Y-76708000D01*
X160065720Y-76710540D01*
X160327340Y-76756260D01*
X160444180Y-76926440D01*
X160472120Y-77012800D01*
X160528000Y-77391260D01*
X160535620Y-77500480D01*
X160632140Y-77640180D01*
X160705800Y-77655420D01*
X160977580Y-77767180D01*
X161124900Y-77830680D01*
X161307780Y-77812900D01*
X161599880Y-77630020D01*
X161980880Y-77368400D01*
X162270440Y-77647800D01*
X162450780Y-77843380D01*
X162560000Y-78008480D01*
X162519360Y-78107540D01*
X162346640Y-78366620D01*
X162219640Y-78546960D01*
X162151060Y-78790800D01*
X162275520Y-79105760D01*
X162339020Y-79222600D01*
X162547300Y-79451200D01*
X162877500Y-79502000D01*
X163080700Y-79527400D01*
X163240720Y-79728060D01*
X163288980Y-79910940D01*
X163243260Y-80279240D01*
X163017200Y-80474820D01*
X162623500Y-80556100D01*
X162509200Y-80611980D01*
X162262820Y-80965040D01*
X162090100Y-81335880D01*
X162326320Y-81658460D01*
X162471100Y-81876900D01*
X162560000Y-82059780D01*
X162511740Y-82151220D01*
X162311080Y-82384900D01*
X162158680Y-82529680D01*
X162013900Y-82633820D01*
D11*
X161418000Y-86310000D02*
X161518000Y-86343333D01*
X161551333Y-86376667D01*
X161584667Y-86443333D01*
X161584667Y-86543333D01*
X161551333Y-86610000D01*
X161518000Y-86643333D01*
X161451333Y-86676667D01*
X161184667Y-86676667D01*
X161184667Y-85976667D01*
X161418000Y-85976667D01*
X161484667Y-86010000D01*
X161518000Y-86043333D01*
X161551333Y-86110000D01*
X161551333Y-86176667D01*
X161518000Y-86243333D01*
X161484667Y-86276667D01*
X161418000Y-86310000D01*
X161184667Y-86310000D01*
X162018000Y-85976667D02*
X162151333Y-85976667D01*
X162218000Y-86010000D01*
X162284667Y-86076667D01*
X162318000Y-86210000D01*
X162318000Y-86443333D01*
X162284667Y-86576667D01*
X162218000Y-86643333D01*
X162151333Y-86676667D01*
X162018000Y-86676667D01*
X161951333Y-86643333D01*
X161884667Y-86576667D01*
X161851333Y-86443333D01*
X161851333Y-86210000D01*
X161884667Y-86076667D01*
X161951333Y-86010000D01*
X162018000Y-85976667D01*
X162584666Y-86476667D02*
X162918000Y-86476667D01*
X162518000Y-86676667D02*
X162751333Y-85976667D01*
X162984666Y-86676667D01*
X163618000Y-86676667D02*
X163384666Y-86343333D01*
X163218000Y-86676667D02*
X163218000Y-85976667D01*
X163484666Y-85976667D01*
X163551333Y-86010000D01*
X163584666Y-86043333D01*
X163618000Y-86110000D01*
X163618000Y-86210000D01*
X163584666Y-86276667D01*
X163551333Y-86310000D01*
X163484666Y-86343333D01*
X163218000Y-86343333D01*
X163918000Y-86676667D02*
X163918000Y-85976667D01*
X164084666Y-85976667D01*
X164184666Y-86010000D01*
X164251333Y-86076667D01*
X164284666Y-86143333D01*
X164318000Y-86276667D01*
X164318000Y-86376667D01*
X164284666Y-86510000D01*
X164251333Y-86576667D01*
X164184666Y-86643333D01*
X164084666Y-86676667D01*
X163918000Y-86676667D01*
X164984666Y-86676667D02*
X164584666Y-86676667D01*
X164784666Y-86676667D02*
X164784666Y-85976667D01*
X164718000Y-86076667D01*
X164651333Y-86143333D01*
X164584666Y-86176667D01*
D14*
X155353333Y-71556571D02*
X155686667Y-71556571D01*
X155829524Y-72080381D02*
X155353333Y-72080381D01*
X155353333Y-71080381D01*
X155829524Y-71080381D01*
X156210476Y-72032762D02*
X156353333Y-72080381D01*
X156591429Y-72080381D01*
X156686667Y-72032762D01*
X156734286Y-71985143D01*
X156781905Y-71889905D01*
X156781905Y-71794667D01*
X156734286Y-71699429D01*
X156686667Y-71651810D01*
X156591429Y-71604190D01*
X156400952Y-71556571D01*
X156305714Y-71508952D01*
X156258095Y-71461333D01*
X156210476Y-71366095D01*
X156210476Y-71270857D01*
X156258095Y-71175619D01*
X156305714Y-71128000D01*
X156400952Y-71080381D01*
X156639048Y-71080381D01*
X156781905Y-71128000D01*
X157210476Y-72080381D02*
X157210476Y-71080381D01*
X157591429Y-71080381D01*
X157686667Y-71128000D01*
X157734286Y-71175619D01*
X157781905Y-71270857D01*
X157781905Y-71413714D01*
X157734286Y-71508952D01*
X157686667Y-71556571D01*
X157591429Y-71604190D01*
X157210476Y-71604190D01*
X158353333Y-71508952D02*
X158258095Y-71461333D01*
X158210476Y-71413714D01*
X158162857Y-71318476D01*
X158162857Y-71270857D01*
X158210476Y-71175619D01*
X158258095Y-71128000D01*
X158353333Y-71080381D01*
X158543810Y-71080381D01*
X158639048Y-71128000D01*
X158686667Y-71175619D01*
X158734286Y-71270857D01*
X158734286Y-71318476D01*
X158686667Y-71413714D01*
X158639048Y-71461333D01*
X158543810Y-71508952D01*
X158353333Y-71508952D01*
X158258095Y-71556571D01*
X158210476Y-71604190D01*
X158162857Y-71699429D01*
X158162857Y-71889905D01*
X158210476Y-71985143D01*
X158258095Y-72032762D01*
X158353333Y-72080381D01*
X158543810Y-72080381D01*
X158639048Y-72032762D01*
X158686667Y-71985143D01*
X158734286Y-71889905D01*
X158734286Y-71699429D01*
X158686667Y-71604190D01*
X158639048Y-71556571D01*
X158543810Y-71508952D01*
X159115238Y-71175619D02*
X159162857Y-71128000D01*
X159258095Y-71080381D01*
X159496191Y-71080381D01*
X159591429Y-71128000D01*
X159639048Y-71175619D01*
X159686667Y-71270857D01*
X159686667Y-71366095D01*
X159639048Y-71508952D01*
X159067619Y-72080381D01*
X159686667Y-72080381D01*
X160543810Y-71080381D02*
X160353333Y-71080381D01*
X160258095Y-71128000D01*
X160210476Y-71175619D01*
X160115238Y-71318476D01*
X160067619Y-71508952D01*
X160067619Y-71889905D01*
X160115238Y-71985143D01*
X160162857Y-72032762D01*
X160258095Y-72080381D01*
X160448572Y-72080381D01*
X160543810Y-72032762D01*
X160591429Y-71985143D01*
X160639048Y-71889905D01*
X160639048Y-71651810D01*
X160591429Y-71556571D01*
X160543810Y-71508952D01*
X160448572Y-71461333D01*
X160258095Y-71461333D01*
X160162857Y-71508952D01*
X160115238Y-71556571D01*
X160067619Y-71651810D01*
X161496191Y-71080381D02*
X161305714Y-71080381D01*
X161210476Y-71128000D01*
X161162857Y-71175619D01*
X161067619Y-71318476D01*
X161020000Y-71508952D01*
X161020000Y-71889905D01*
X161067619Y-71985143D01*
X161115238Y-72032762D01*
X161210476Y-72080381D01*
X161400953Y-72080381D01*
X161496191Y-72032762D01*
X161543810Y-71985143D01*
X161591429Y-71889905D01*
X161591429Y-71651810D01*
X161543810Y-71556571D01*
X161496191Y-71508952D01*
X161400953Y-71461333D01*
X161210476Y-71461333D01*
X161115238Y-71508952D01*
X161067619Y-71556571D01*
X161020000Y-71651810D01*
X162020000Y-71699429D02*
X162781905Y-71699429D01*
X163448571Y-71080381D02*
X163543810Y-71080381D01*
X163639048Y-71128000D01*
X163686667Y-71175619D01*
X163734286Y-71270857D01*
X163781905Y-71461333D01*
X163781905Y-71699429D01*
X163734286Y-71889905D01*
X163686667Y-71985143D01*
X163639048Y-72032762D01*
X163543810Y-72080381D01*
X163448571Y-72080381D01*
X163353333Y-72032762D01*
X163305714Y-71985143D01*
X163258095Y-71889905D01*
X163210476Y-71699429D01*
X163210476Y-71461333D01*
X163258095Y-71270857D01*
X163305714Y-71175619D01*
X163353333Y-71128000D01*
X163448571Y-71080381D01*
X164115238Y-71080381D02*
X164734286Y-71080381D01*
X164400952Y-71461333D01*
X164543810Y-71461333D01*
X164639048Y-71508952D01*
X164686667Y-71556571D01*
X164734286Y-71651810D01*
X164734286Y-71889905D01*
X164686667Y-71985143D01*
X164639048Y-72032762D01*
X164543810Y-72080381D01*
X164258095Y-72080381D01*
X164162857Y-72032762D01*
X164115238Y-71985143D01*
D11*
X179444667Y-88169714D02*
X179406572Y-88207810D01*
X179292286Y-88245905D01*
X179216096Y-88245905D01*
X179101810Y-88207810D01*
X179025619Y-88131619D01*
X178987524Y-88055429D01*
X178949429Y-87903048D01*
X178949429Y-87788762D01*
X178987524Y-87636381D01*
X179025619Y-87560190D01*
X179101810Y-87484000D01*
X179216096Y-87445905D01*
X179292286Y-87445905D01*
X179406572Y-87484000D01*
X179444667Y-87522095D01*
X180206572Y-88245905D02*
X179749429Y-88245905D01*
X179978000Y-88245905D02*
X179978000Y-87445905D01*
X179901810Y-87560190D01*
X179825619Y-87636381D01*
X179749429Y-87674476D01*
D12*
X170554667Y-87915714D02*
X170516572Y-87953810D01*
X170402286Y-87991905D01*
X170326096Y-87991905D01*
X170211810Y-87953810D01*
X170135619Y-87877619D01*
X170097524Y-87801429D01*
X170059429Y-87649048D01*
X170059429Y-87534762D01*
X170097524Y-87382381D01*
X170135619Y-87306190D01*
X170211810Y-87230000D01*
X170326096Y-87191905D01*
X170402286Y-87191905D01*
X170516572Y-87230000D01*
X170554667Y-87268095D01*
X170859429Y-87268095D02*
X170897524Y-87230000D01*
X170973715Y-87191905D01*
X171164191Y-87191905D01*
X171240381Y-87230000D01*
X171278477Y-87268095D01*
X171316572Y-87344286D01*
X171316572Y-87420476D01*
X171278477Y-87534762D01*
X170821334Y-87991905D01*
X171316572Y-87991905D01*
D11*
X179749524Y-70973905D02*
X179749524Y-70173905D01*
X180054286Y-70173905D01*
X180130477Y-70212000D01*
X180168572Y-70250095D01*
X180206667Y-70326286D01*
X180206667Y-70440571D01*
X180168572Y-70516762D01*
X180130477Y-70554857D01*
X180054286Y-70592952D01*
X179749524Y-70592952D01*
X180968572Y-70973905D02*
X180511429Y-70973905D01*
X180740000Y-70973905D02*
X180740000Y-70173905D01*
X180663810Y-70288190D01*
X180587619Y-70364381D01*
X180511429Y-70402476D01*
X138855524Y-72497905D02*
X138855524Y-71697905D01*
X139160286Y-71697905D01*
X139236477Y-71736000D01*
X139274572Y-71774095D01*
X139312667Y-71850286D01*
X139312667Y-71964571D01*
X139274572Y-72040762D01*
X139236477Y-72078857D01*
X139160286Y-72116952D01*
X138855524Y-72116952D01*
X139617429Y-71774095D02*
X139655524Y-71736000D01*
X139731715Y-71697905D01*
X139922191Y-71697905D01*
X139998381Y-71736000D01*
X140036477Y-71774095D01*
X140074572Y-71850286D01*
X140074572Y-71926476D01*
X140036477Y-72040762D01*
X139579334Y-72497905D01*
X140074572Y-72497905D01*
X146983524Y-86721905D02*
X146983524Y-85921905D01*
X147288286Y-85921905D01*
X147364477Y-85960000D01*
X147402572Y-85998095D01*
X147440667Y-86074286D01*
X147440667Y-86188571D01*
X147402572Y-86264762D01*
X147364477Y-86302857D01*
X147288286Y-86340952D01*
X146983524Y-86340952D01*
X147707334Y-85921905D02*
X148202572Y-85921905D01*
X147935905Y-86226667D01*
X148050191Y-86226667D01*
X148126381Y-86264762D01*
X148164477Y-86302857D01*
X148202572Y-86379048D01*
X148202572Y-86569524D01*
X148164477Y-86645714D01*
X148126381Y-86683810D01*
X148050191Y-86721905D01*
X147821619Y-86721905D01*
X147745429Y-86683810D01*
X147707334Y-86645714D01*
X182797524Y-88753905D02*
X182797524Y-87953905D01*
X183102286Y-87953905D01*
X183178477Y-87992000D01*
X183216572Y-88030095D01*
X183254667Y-88106286D01*
X183254667Y-88220571D01*
X183216572Y-88296762D01*
X183178477Y-88334857D01*
X183102286Y-88372952D01*
X182797524Y-88372952D01*
X183940381Y-88220571D02*
X183940381Y-88753905D01*
X183749905Y-87915810D02*
X183559429Y-88487238D01*
X184054667Y-88487238D01*
X147269333Y-78555810D02*
X147383619Y-78593905D01*
X147574095Y-78593905D01*
X147650285Y-78555810D01*
X147688381Y-78517714D01*
X147726476Y-78441524D01*
X147726476Y-78365333D01*
X147688381Y-78289143D01*
X147650285Y-78251048D01*
X147574095Y-78212952D01*
X147421714Y-78174857D01*
X147345523Y-78136762D01*
X147307428Y-78098667D01*
X147269333Y-78022476D01*
X147269333Y-77946286D01*
X147307428Y-77870095D01*
X147345523Y-77832000D01*
X147421714Y-77793905D01*
X147612190Y-77793905D01*
X147726476Y-77832000D01*
X147993143Y-77793905D02*
X148183619Y-78593905D01*
X148336000Y-78022476D01*
X148488381Y-78593905D01*
X148678857Y-77793905D01*
X149402667Y-78593905D02*
X148945524Y-78593905D01*
X149174095Y-78593905D02*
X149174095Y-77793905D01*
X149097905Y-77908190D01*
X149021714Y-77984381D01*
X148945524Y-78022476D01*
X172923333Y-69919810D02*
X173037619Y-69957905D01*
X173228095Y-69957905D01*
X173304285Y-69919810D01*
X173342381Y-69881714D01*
X173380476Y-69805524D01*
X173380476Y-69729333D01*
X173342381Y-69653143D01*
X173304285Y-69615048D01*
X173228095Y-69576952D01*
X173075714Y-69538857D01*
X172999523Y-69500762D01*
X172961428Y-69462667D01*
X172923333Y-69386476D01*
X172923333Y-69310286D01*
X172961428Y-69234095D01*
X172999523Y-69196000D01*
X173075714Y-69157905D01*
X173266190Y-69157905D01*
X173380476Y-69196000D01*
X173647143Y-69157905D02*
X173837619Y-69957905D01*
X173990000Y-69386476D01*
X174142381Y-69957905D01*
X174332857Y-69157905D01*
X174599524Y-69234095D02*
X174637619Y-69196000D01*
X174713810Y-69157905D01*
X174904286Y-69157905D01*
X174980476Y-69196000D01*
X175018572Y-69234095D01*
X175056667Y-69310286D01*
X175056667Y-69386476D01*
X175018572Y-69500762D01*
X174561429Y-69957905D01*
X175056667Y-69957905D01*
X169926095Y-78446381D02*
X169926095Y-79255905D01*
X169973714Y-79351143D01*
X170021333Y-79398762D01*
X170116571Y-79446381D01*
X170307048Y-79446381D01*
X170402286Y-79398762D01*
X170449905Y-79351143D01*
X170497524Y-79255905D01*
X170497524Y-78446381D01*
X171497524Y-79446381D02*
X170926095Y-79446381D01*
X171211809Y-79446381D02*
X171211809Y-78446381D01*
X171116571Y-78589238D01*
X171021333Y-78684476D01*
X170926095Y-78732095D01*
%LPC*%
D15*
X166120000Y-86122000D03*
X166120000Y-84122000D03*
X166120000Y-82122000D03*
X166120000Y-80122000D03*
X166120000Y-78122000D03*
X166120000Y-76122000D03*
X166120000Y-74122000D03*
X153920000Y-74122000D03*
X153920000Y-76122000D03*
X153920000Y-78122000D03*
X153920000Y-80122000D03*
X153920000Y-82122000D03*
X153920000Y-84122000D03*
X153920000Y-86122000D03*
D16*
X179578000Y-83586000D03*
X179578000Y-86086000D03*
D17*
X172847000Y-86868000D03*
X176149000Y-86868000D03*
D18*
X182626000Y-71882000D03*
D19*
X182626000Y-74422000D03*
X182626000Y-76962000D03*
X182626000Y-79502000D03*
D20*
X149352000Y-71374000D03*
D21*
X146812000Y-71374000D03*
X144272000Y-71374000D03*
X141732000Y-71374000D03*
D18*
X145034000Y-85344000D03*
D19*
X145034000Y-82804000D03*
X145034000Y-80264000D03*
D22*
X182626000Y-83820000D03*
D23*
X182626000Y-86360000D03*
D24*
X141709000Y-76200000D03*
X148359000Y-76200000D03*
D25*
X176640000Y-76414000D03*
X176640000Y-73914000D03*
X176640000Y-71414000D03*
X171340000Y-71414000D03*
X171340000Y-73914000D03*
X171340000Y-76414000D03*
D26*
X173990000Y-75414000D03*
X173990000Y-72414000D03*
D27*
X170940000Y-81788000D03*
D28*
X177040000Y-84088000D03*
X177040000Y-81788000D03*
X177040000Y-79488000D03*
D29*
X149668000Y-82062000D03*
X169452000Y-85852000D03*
M02*
